<svg width="105" height="20" viewBox="0 0 105 20" fill="none" xmlns="http://www.w3.org/2000/svg">
<g filter="url(#filter0_b_601_14)">
<path d="M12.7103 13.64C12.7236 13.72 12.7303 13.8 12.7303 13.88C12.7436 13.9467 12.7503 14.0267 12.7503 14.12C12.7503 14.28 12.7036 14.4267 12.6103 14.56C12.5703 14.6267 12.517 14.6933 12.4503 14.76C12.3836 14.8133 12.3036 14.86 12.2103 14.9C11.877 15.0867 11.5236 15.1533 11.1503 15.1C10.9636 15.0467 10.797 14.96 10.6503 14.84C10.6236 14.8133 10.6036 14.8 10.5903 14.8C10.577 14.7867 10.5636 14.7667 10.5503 14.74C10.537 14.7267 10.5236 14.7133 10.5103 14.7C10.497 14.6733 10.477 14.6533 10.4503 14.64C10.3836 14.5733 10.3303 14.5133 10.2903 14.46C10.2503 14.3933 10.2103 14.3267 10.1703 14.26C10.1436 14.1933 10.1103 14.1333 10.0703 14.08C10.0436 14.0133 10.0103 13.9467 9.97031 13.88C9.94365 13.8267 9.91698 13.78 9.89031 13.74C9.86365 13.6867 9.84365 13.6333 9.83031 13.58C9.77698 13.46 9.74365 13.3533 9.73031 13.26L9.31031 12.28C8.39031 12.28 7.47031 12.2867 6.55031 12.3C5.64365 12.3 4.73031 12.2933 3.81031 12.28L3.39031 13.26C3.36365 13.3133 3.34365 13.3667 3.33031 13.42C3.33031 13.4733 3.31698 13.5267 3.29031 13.58C3.26365 13.6333 3.23698 13.6867 3.21031 13.74C3.19698 13.78 3.17698 13.8267 3.15031 13.88C3.11031 13.9467 3.07031 14.0133 3.03031 14.08C3.00365 14.1333 2.97031 14.1933 2.93031 14.26C2.90365 14.3267 2.87031 14.3933 2.83031 14.46C2.79031 14.5133 2.73698 14.5733 2.67031 14.64C2.64365 14.6533 2.62365 14.6733 2.61031 14.7C2.59698 14.7133 2.58365 14.7267 2.57031 14.74C2.55698 14.7667 2.54365 14.7867 2.53031 14.8C2.51698 14.8 2.49698 14.8133 2.47031 14.84C2.32365 14.96 2.15698 15.0467 1.97031 15.1C1.59698 15.1533 1.24365 15.0867 0.910313 14.9C0.816979 14.86 0.736979 14.8133 0.670313 14.76C0.603646 14.6933 0.550313 14.6267 0.510313 14.56C0.416979 14.4267 0.370313 14.28 0.370313 14.12C0.370313 14.0267 0.370313 13.9467 0.370313 13.88C0.383646 13.8 0.396979 13.72 0.410313 13.64C0.436979 13.52 0.470313 13.4 0.510313 13.28C0.550313 13.16 0.570313 13.1 0.570313 13.1L4.73031 2.86L4.85031 2.54C4.87698 2.46 4.91031 2.38667 4.95031 2.32C4.99031 2.25333 5.02365 2.17333 5.05031 2.08C5.11698 1.90667 5.19031 1.75333 5.27031 1.62C5.31031 1.54 5.35698 1.46667 5.41031 1.4C5.46365 1.33333 5.51698 1.26667 5.57031 1.2C5.65031 1.09333 5.76365 1.00667 5.91031 0.94C6.09698 0.873333 6.31031 0.84 6.55031 0.84C6.80365 0.84 7.02365 0.873333 7.21031 0.94C7.35698 1.00667 7.47031 1.09333 7.55031 1.2C7.64365 1.32 7.74365 1.46 7.85031 1.62C7.93031 1.75333 8.00365 1.90667 8.07031 2.08C8.09698 2.17333 8.13031 2.25333 8.17031 2.32C8.21031 2.38667 8.24365 2.46 8.27031 2.54L8.39031 2.86L12.5503 13.1C12.5503 13.1 12.5703 13.16 12.6103 13.28C12.6503 13.4 12.6836 13.52 12.7103 13.64ZM7.97031 8.74C7.79698 8.35333 7.61698 7.95333 7.43031 7.54C7.25698 7.12667 7.07031 6.70667 6.87031 6.28C6.81698 6.16 6.76365 6.04 6.71031 5.92C6.65698 5.78667 6.60365 5.66 6.55031 5.54C6.51031 5.66 6.46365 5.78667 6.41031 5.92C6.35698 6.04 6.30365 6.16 6.25031 6.28C6.05031 6.70667 5.85698 7.12667 5.67031 7.54C5.49698 7.95333 5.32365 8.35333 5.15031 8.74L4.79031 9.62H8.33031L7.97031 8.74ZM22.5747 10.24C22.548 10.68 22.5214 11.1267 22.4947 11.58C22.468 12.02 22.3947 12.4467 22.2747 12.86C22.168 13.2733 21.9947 13.6467 21.7547 13.98C21.528 14.3133 21.2014 14.58 20.7747 14.78C20.4014 14.9667 20.0014 15.0933 19.5747 15.16C19.148 15.24 18.7214 15.2733 18.2947 15.26C17.868 15.2467 17.4547 15.18 17.0547 15.06C16.6547 14.9533 16.2947 14.8 15.9747 14.6C15.6547 14.4 15.3947 14.14 15.1947 13.82C14.9947 13.5 14.8347 13.1533 14.7147 12.78C14.608 12.4067 14.5347 12.02 14.4947 11.62C14.4547 11.22 14.428 10.8467 14.4147 10.5C14.3614 9.58 14.3614 8.67333 14.4147 7.78C14.4147 7.60667 14.4147 7.41333 14.4147 7.2C14.4147 6.97333 14.428 6.75333 14.4547 6.54C14.4947 6.32667 14.5547 6.13333 14.6347 5.96C14.7147 5.77333 14.848 5.63333 15.0347 5.54C15.4347 5.32667 15.8014 5.31333 16.1347 5.5C16.4814 5.68667 16.688 6.07333 16.7547 6.66C16.7947 6.96667 16.808 7.30667 16.7947 7.68C16.7947 8.05333 16.808 8.39333 16.8347 8.7C16.848 9.15333 16.8614 9.64667 16.8747 10.18C16.888 10.7 16.9614 11.1667 17.0947 11.58C17.2414 11.9933 17.4747 12.3067 17.7947 12.52C18.128 12.72 18.6214 12.7267 19.2747 12.54C19.5814 12.4467 19.7814 12.2133 19.8747 11.84C19.9814 11.4667 20.0347 10.9133 20.0347 10.18C20.0347 9.86 20.028 9.50667 20.0147 9.12C20.0014 8.73333 19.9947 8.35333 19.9947 7.98C19.9947 7.59333 20.0014 7.24 20.0147 6.92C20.0414 6.58667 20.0814 6.33333 20.1347 6.16C20.2014 5.92 20.3414 5.74 20.5547 5.62C20.768 5.5 20.9947 5.44 21.2347 5.44C21.4747 5.42667 21.7014 5.47333 21.9147 5.58C22.128 5.68667 22.2747 5.86 22.3547 6.1C22.4347 6.31333 22.488 6.58667 22.5147 6.92C22.5547 7.24 22.5814 7.59333 22.5947 7.98C22.608 8.35333 22.608 8.74 22.5947 9.14C22.5947 9.52667 22.588 9.89333 22.5747 10.24ZM30.458 1.02C30.7113 0.953332 30.9313 0.946666 31.118 0.999999C31.318 1.04 31.4846 1.12667 31.618 1.26C31.7646 1.39333 31.8713 1.56 31.938 1.76C32.018 1.96 32.058 2.18 32.058 2.42C32.0713 3.08667 32.0713 3.60667 32.058 3.98C32.058 4.35333 32.058 4.68 32.058 4.96V11.1C32.058 11.82 32.058 12.42 32.058 12.9C32.058 13.38 32.0313 13.7733 31.978 14.08C31.938 14.3733 31.858 14.5933 31.738 14.74C31.6313 14.8867 31.4646 14.9867 31.238 15.04C31.0113 15.1067 30.7113 15.14 30.338 15.14C29.978 15.14 29.5246 15.14 28.978 15.14C27.538 15.14 26.398 14.8 25.558 14.12C24.7313 13.44 24.2913 12.36 24.238 10.88C24.2113 10.24 24.2913 9.65333 24.478 9.12C24.6646 8.58667 24.938 8.13333 25.298 7.76C25.6713 7.37333 26.1246 7.08 26.658 6.88C27.2046 6.66667 27.8246 6.56667 28.518 6.58H29.618V3C29.618 2.78667 29.618 2.58 29.618 2.38C29.618 2.16667 29.638 1.97333 29.678 1.8C29.718 1.61333 29.798 1.45333 29.918 1.32C30.038 1.18667 30.218 1.08667 30.458 1.02ZM26.978 12.12C27.258 12.5067 27.7646 12.72 28.498 12.76C28.6446 12.7733 28.7846 12.78 28.918 12.78C29.0513 12.7667 29.1713 12.7467 29.278 12.72C29.398 12.7067 29.5113 12.6867 29.618 12.66V8.96C29.1513 8.88 28.7246 8.83333 28.338 8.82C27.9646 8.79333 27.5913 8.92667 27.218 9.22C27.018 9.38 26.8646 9.58667 26.758 9.84C26.6513 10.08 26.5913 10.34 26.578 10.62C26.5646 10.8867 26.5913 11.1533 26.658 11.42C26.7246 11.6867 26.8313 11.92 26.978 12.12ZM36.1911 7.42C36.1911 7.79333 36.1911 8.21333 36.1911 8.68C36.2044 9.14667 36.2111 9.63333 36.2111 10.14C36.2111 10.6333 36.2111 11.1267 36.2111 11.62C36.2111 12.1 36.2044 12.5467 36.1911 12.96C36.1778 13.16 36.1578 13.38 36.1311 13.62C36.1044 13.8467 36.0511 14.06 35.9711 14.26C35.8911 14.46 35.7644 14.6267 35.5911 14.76C35.4311 14.88 35.2111 14.9333 34.9311 14.92C34.5178 14.8933 34.2178 14.7133 34.0311 14.38C33.8578 14.0467 33.7578 13.58 33.7311 12.98C33.7311 12.6733 33.7244 12.32 33.7111 11.92C33.7111 11.52 33.7044 11.1133 33.6911 10.7C33.6911 10.2867 33.6911 9.88667 33.6911 9.5C33.6911 9.1 33.6911 8.74 33.6911 8.42C33.6911 8.23333 33.6844 8.00667 33.6711 7.74C33.6711 7.47333 33.6778 7.2 33.6911 6.92C33.7044 6.64 33.7378 6.37333 33.7911 6.12C33.8444 5.85333 33.9311 5.63333 34.0511 5.46C34.1444 5.35333 34.2778 5.27333 34.4511 5.22C34.6244 5.15333 34.8044 5.12 34.9911 5.12C35.1911 5.12 35.3778 5.15333 35.5511 5.22C35.7378 5.28667 35.8711 5.38 35.9511 5.5C36.0044 5.58 36.0444 5.69333 36.0711 5.84C36.0978 5.98667 36.1178 6.15333 36.1311 6.34C36.1578 6.51333 36.1711 6.7 36.1711 6.9C36.1844 7.08667 36.1911 7.26 36.1911 7.42ZM35.4311 3.38C35.0178 3.48667 34.6711 3.44667 34.3911 3.26C34.1244 3.06 33.9578 2.76667 33.8911 2.38C33.8378 2.1 33.8578 1.85333 33.9511 1.64C34.0444 1.42667 34.1844 1.26667 34.3711 1.16C34.5578 1.04 34.7711 0.986666 35.0111 0.999999C35.2511 1.01333 35.4911 1.10667 35.7311 1.28C35.9578 1.44 36.1178 1.62667 36.2111 1.84C36.3178 2.05333 36.3511 2.26 36.3111 2.46C36.2844 2.66 36.1978 2.84667 36.0511 3.02C35.9044 3.18 35.6978 3.3 35.4311 3.38ZM40.5284 5.96C40.9684 5.74667 41.4284 5.59333 41.9084 5.5C42.3884 5.40667 42.8618 5.38667 43.3284 5.44C43.8084 5.49333 44.2684 5.62 44.7084 5.82C45.1618 6.02 45.5751 6.3 45.9484 6.66C46.2551 6.96667 46.5218 7.34 46.7484 7.78C46.9751 8.20667 47.1418 8.62667 47.2484 9.04C47.4751 9.77333 47.5084 10.5133 47.3484 11.26C47.1884 12.0067 46.9151 12.7 46.5284 13.34C46.3418 13.6333 46.1084 13.9 45.8284 14.14C45.5618 14.3667 45.2751 14.5533 44.9684 14.7C44.5684 14.8867 44.1351 15.0133 43.6684 15.08C43.2018 15.16 42.7484 15.18 42.3084 15.14C41.5084 15.1 40.8018 14.9 40.1884 14.54C39.5884 14.18 39.1018 13.72 38.7284 13.16C38.3684 12.6 38.1284 11.9667 38.0084 11.26C37.9018 10.54 37.9484 9.80667 38.1484 9.06C38.3618 8.26 38.6684 7.61333 39.0684 7.12C39.4818 6.61333 39.9684 6.22667 40.5284 5.96ZM41.1284 8.64C40.9284 8.82667 40.7751 9.06 40.6684 9.34C40.5618 9.62 40.4951 9.91333 40.4684 10.22C40.4418 10.5133 40.4618 10.8133 40.5284 11.12C40.6084 11.4133 40.7284 11.68 40.8884 11.92C41.0218 12.12 41.2618 12.2867 41.6084 12.42C41.9551 12.5533 42.3151 12.6333 42.6884 12.66C43.1151 12.6867 43.4884 12.5733 43.8084 12.32C44.1284 12.0533 44.3684 11.7267 44.5284 11.34C44.7018 10.9533 44.7818 10.5333 44.7684 10.08C44.7551 9.62667 44.6351 9.21333 44.4084 8.84C44.2484 8.57333 44.0218 8.38 43.7284 8.26C43.4484 8.12667 43.1484 8.06 42.8284 8.06C42.5218 8.04667 42.2151 8.09333 41.9084 8.2C41.6018 8.29333 41.3418 8.44 41.1284 8.64ZM57.7022 2.1C58.2089 2.56667 58.5822 3.12667 58.8222 3.78C59.0622 4.42 59.1555 5.06 59.1022 5.7C59.0489 6.31333 58.8555 6.88 58.5222 7.4C58.1889 7.90667 57.6822 8.29333 57.0022 8.56C56.4689 8.78667 55.9422 8.94667 55.4222 9.04C54.9022 9.13333 54.3289 9.20667 53.7022 9.26C53.4222 9.28667 53.1822 9.30667 52.9822 9.32C52.7955 9.32 52.5755 9.32667 52.3222 9.34C52.2689 9.34 52.1755 9.34 52.0422 9.34C51.9222 9.34 51.8355 9.34667 51.7822 9.36V13.5C51.7422 13.7533 51.6889 14.0133 51.6222 14.28C51.5689 14.5467 51.4155 14.7533 51.1622 14.9C51.0155 14.98 50.8355 15.0267 50.6222 15.04C50.4089 15.0533 50.2155 15.0467 50.0422 15.02C49.8555 14.9933 49.6955 14.9467 49.5622 14.88C49.4422 14.8 49.3422 14.6667 49.2622 14.48C49.2089 14.36 49.1555 14.2267 49.1022 14.08C49.0622 13.92 49.0422 13.7267 49.0422 13.5V2.44C49.0422 2.34667 49.0489 2.26 49.0622 2.18C49.0755 2.1 49.0889 2.02 49.1022 1.94C49.1289 1.87333 49.1489 1.8 49.1622 1.72C49.1755 1.64 49.1955 1.56667 49.2222 1.5C49.2489 1.43333 49.2755 1.37333 49.3022 1.32C49.3422 1.26667 49.3889 1.22 49.4422 1.18C49.5089 1.11333 49.6089 1.05333 49.7422 0.999999C49.8889 0.946666 50.1022 0.919999 50.3822 0.919999H50.4222C50.8355 0.893333 51.2955 0.873333 51.8022 0.86C52.3089 0.833333 52.7289 0.839999 53.0622 0.879999C53.2489 0.906666 53.4222 0.926666 53.5822 0.94C53.7422 0.94 53.8955 0.946666 54.0422 0.96C54.2022 0.973333 54.3622 0.986666 54.5222 0.999999C54.6822 1.01333 54.8422 1.03333 55.0022 1.06C55.1355 1.08667 55.2555 1.10667 55.3622 1.12C55.4822 1.13333 55.6022 1.15333 55.7222 1.18C55.8289 1.20667 55.9422 1.23333 56.0622 1.26C56.1955 1.28667 56.3155 1.33333 56.4222 1.4C56.7022 1.48 56.9355 1.58 57.1222 1.7C57.3089 1.82 57.5022 1.95333 57.7022 2.1ZM56.5022 5.4C56.5155 5.08 56.4489 4.8 56.3022 4.56C56.1689 4.32 55.9755 4.12 55.7222 3.96C55.4689 3.8 55.1822 3.67333 54.8622 3.58C54.5422 3.48667 54.2222 3.42 53.9022 3.38C53.8222 3.38 53.7089 3.38 53.5622 3.38C53.4289 3.36667 53.2822 3.36 53.1222 3.36C52.9622 3.34667 52.8089 3.34 52.6622 3.34C52.5289 3.32667 52.4222 3.32 52.3422 3.32C52.2755 3.30667 52.1955 3.3 52.1022 3.3C52.0089 3.3 51.9022 3.3 51.7822 3.3C51.7955 3.71333 51.8022 4.11333 51.8022 4.5C51.8022 4.87333 51.8022 5.28 51.8022 5.72C51.7889 5.96 51.7822 6.2 51.7822 6.44C51.7822 6.68 51.7822 6.91333 51.7822 7.14L53.0222 7.12C53.3422 7.12 53.6955 7.1 54.0822 7.06C54.4689 7.02 54.8355 6.94 55.1822 6.82C55.5289 6.7 55.8222 6.52667 56.0622 6.3C56.3155 6.07333 56.4622 5.77333 56.5022 5.4ZM63.4014 13.4C63.3881 13.4667 63.3747 13.5333 63.3614 13.6C63.3614 13.6533 63.3614 13.7133 63.3614 13.78L63.2414 14.2C63.2147 14.2533 63.1947 14.2867 63.1814 14.3L63.1214 14.42C63.0547 14.5667 62.9347 14.6867 62.7614 14.78C62.4414 14.94 62.1014 14.98 61.7414 14.9C61.5147 14.8733 61.3347 14.8067 61.2014 14.7C61.0681 14.6067 60.9747 14.4933 60.9214 14.36C60.8681 14.2267 60.8281 14.0933 60.8014 13.96C60.7614 13.8267 60.7414 13.7067 60.7414 13.6V2.4C60.7414 2.30667 60.7414 2.22667 60.7414 2.16C60.7547 2.08 60.7681 2.00667 60.7814 1.94C60.7947 1.84667 60.8081 1.76667 60.8214 1.7C60.8481 1.63333 60.8747 1.56 60.9014 1.48C60.9414 1.34667 61.0147 1.24 61.1214 1.16C61.2814 1.04 61.4347 0.973333 61.5814 0.96C61.6747 0.933332 61.7614 0.919999 61.8414 0.919999C61.9214 0.906666 62.0147 0.899999 62.1214 0.899999C62.3081 0.899999 62.5214 0.953333 62.7614 1.06C62.9481 1.16667 63.0814 1.31333 63.1614 1.5C63.2947 1.76667 63.3614 2.01333 63.3614 2.24C63.3747 2.37333 63.3814 2.57333 63.3814 2.84C63.3947 3.10667 63.4014 3.30667 63.4014 3.44V3.52C63.4281 3.94667 63.4414 4.36 63.4414 4.76C63.4414 5.14667 63.4347 5.57333 63.4214 6.04C63.4214 6.49333 63.4147 6.93333 63.4014 7.36C63.4014 7.77333 63.4014 8.18667 63.4014 8.6V12.8C63.4014 12.8533 63.4014 12.9067 63.4014 12.96C63.4147 13 63.4214 13.0467 63.4214 13.1C63.4214 13.2333 63.4147 13.3333 63.4014 13.4ZM67.3783 6.58C67.7783 6.38 68.1983 6.24 68.6383 6.16C69.0783 6.06667 69.5116 6.04667 69.9383 6.1C70.3783 6.14 70.7983 6.25333 71.1983 6.44C71.5983 6.61333 71.9716 6.86667 72.3183 7.2C72.6649 7.54667 72.9316 7.92667 73.1183 8.34C73.3049 8.75333 73.4383 9.21333 73.5183 9.72C73.5716 10.0667 73.6583 10.3867 73.7783 10.68C73.8983 10.9733 74.0249 11.2667 74.1583 11.56C74.3049 11.8533 74.4383 12.1467 74.5583 12.44C74.6916 12.7333 74.7983 13.04 74.8783 13.36C74.9449 13.6667 74.9183 13.9667 74.7983 14.26C74.6916 14.54 74.4649 14.7133 74.1183 14.78C73.9183 14.82 73.7249 14.8067 73.5383 14.74C73.3649 14.66 73.2049 14.5533 73.0583 14.42C72.9116 14.2733 72.7783 14.12 72.6583 13.96C72.5516 13.7867 72.4516 13.6267 72.3583 13.48C72.0516 13.88 71.7183 14.1933 71.3583 14.42C70.9983 14.6333 70.5649 14.7733 70.0583 14.84C69.6316 14.8933 69.2249 14.9067 68.8383 14.88C68.4516 14.8533 68.0383 14.78 67.5983 14.66C67.0249 14.5133 66.5516 14.26 66.1783 13.9C65.8183 13.5267 65.5383 13.1 65.3383 12.62C65.1516 12.1267 65.0516 11.6 65.0383 11.04C65.0249 10.48 65.0916 9.92667 65.2383 9.38C65.4249 8.66 65.7049 8.07333 66.0783 7.62C66.4516 7.16667 66.8849 6.82 67.3783 6.58ZM67.8783 8.92C67.6916 9.10667 67.5449 9.32667 67.4383 9.58C67.3316 9.83333 67.2649 10.1 67.2383 10.38C67.2249 10.66 67.2516 10.94 67.3183 11.22C67.3849 11.5 67.4916 11.7467 67.6383 11.96C67.7716 12.1467 67.9983 12.3067 68.3183 12.44C68.6383 12.56 68.9716 12.6333 69.3183 12.66C69.7183 12.6867 70.0649 12.58 70.3583 12.34C70.6649 12.1 70.8916 11.8 71.0383 11.44C71.1983 11.0667 71.2716 10.6733 71.2583 10.26C71.2449 9.83333 71.1316 9.44667 70.9183 9.1C70.7583 8.84667 70.5449 8.66 70.2783 8.54C70.0249 8.42 69.7516 8.36 69.4583 8.36C69.1649 8.34667 68.8716 8.39333 68.5783 8.5C68.2983 8.59333 68.0649 8.73333 67.8783 8.92ZM84.9214 6.08C85.0414 6.26667 85.0947 6.46667 85.0814 6.68C85.0814 6.98667 85.0281 7.25333 84.9214 7.48C84.8947 7.54667 84.8547 7.63333 84.8014 7.74C84.7614 7.84667 84.7147 7.96 84.6614 8.08C84.6214 8.2 84.5747 8.31333 84.5214 8.42C84.4681 8.52667 84.4281 8.60667 84.4014 8.66L84.3614 8.76C84.1747 9.17333 83.9947 9.57333 83.8214 9.96C83.6481 10.3467 83.4547 10.76 83.2414 11.2C83.0281 11.6267 82.8214 12.0467 82.6214 12.46C82.4347 12.86 82.2481 13.2533 82.0614 13.64C82.0081 13.7467 81.9614 13.8533 81.9214 13.96C81.8814 14.0533 81.8281 14.1533 81.7614 14.26L80.8014 16.32C80.6281 16.6667 80.4614 17.0067 80.3014 17.34C80.1547 17.6733 79.9881 18.0067 79.8014 18.34C79.7614 18.4067 79.7214 18.4667 79.6814 18.52C79.6547 18.5867 79.6281 18.6533 79.6014 18.72C79.5081 18.88 79.3681 19.0333 79.1814 19.18C79.0081 19.34 78.8214 19.4267 78.6214 19.44C78.2614 19.4667 77.9481 19.36 77.6814 19.12C77.5214 19.0267 77.3947 18.8933 77.3014 18.72C77.2481 18.6 77.2214 18.4467 77.2214 18.26C77.2347 18.18 77.2414 18.1 77.2414 18.02C77.2547 17.9533 77.2681 17.8867 77.2814 17.82C77.3081 17.7533 77.3281 17.6867 77.3414 17.62C77.3547 17.5533 77.3747 17.5 77.4014 17.46C77.4414 17.3533 77.4747 17.3 77.5014 17.3L78.9614 14.14C78.8947 13.9933 78.8281 13.8467 78.7614 13.7C78.6947 13.54 78.6347 13.4 78.5814 13.28C78.4081 12.8667 78.2214 12.4333 78.0214 11.98C77.8347 11.5133 77.6414 11.0533 77.4414 10.6C77.2414 10.1333 77.0347 9.68 76.8214 9.24C76.6081 8.8 76.3947 8.38 76.1814 7.98C76.1014 7.84667 76.0281 7.70667 75.9614 7.56C75.8947 7.4 75.8414 7.24667 75.8014 7.1C75.7614 6.94 75.7481 6.78 75.7614 6.62C75.7747 6.46 75.8347 6.3 75.9414 6.14C76.0481 5.94 76.1881 5.8 76.3614 5.72C76.5347 5.62667 76.7147 5.58667 76.9014 5.6C77.1014 5.6 77.2881 5.64 77.4614 5.72C77.6347 5.8 77.7747 5.90667 77.8814 6.04C78.1081 6.28 78.2881 6.54667 78.4214 6.84C78.5547 7.13333 78.6814 7.43333 78.8014 7.74C79.0547 8.27333 79.3147 8.83333 79.5814 9.42C79.8481 10.0067 80.1147 10.58 80.3814 11.14L81.4214 8.94C81.5281 8.72667 81.6214 8.52 81.7014 8.32C81.7947 8.12 81.8881 7.92667 81.9814 7.74C82.0881 7.51333 82.1881 7.28 82.2814 7.04C82.3881 6.8 82.5081 6.58 82.6414 6.38C82.6681 6.32667 82.6947 6.28 82.7214 6.24C82.7481 6.2 82.7747 6.15333 82.8014 6.1C82.9214 5.94 83.0281 5.81333 83.1214 5.72C83.1881 5.66667 83.2414 5.62667 83.2814 5.6C83.3347 5.56 83.3947 5.53333 83.4614 5.52C83.5547 5.49333 83.6414 5.48 83.7214 5.48C83.8147 5.46667 83.9014 5.46667 83.9814 5.48C84.1147 5.52 84.2747 5.58 84.4614 5.66C84.6614 5.74 84.8147 5.88 84.9214 6.08ZM92.8177 12.26C92.9777 12.22 93.1377 12.1933 93.2977 12.18C93.471 12.1667 93.6243 12.1867 93.7577 12.24C93.9043 12.2933 94.0243 12.3867 94.1177 12.52C94.211 12.64 94.2577 12.8133 94.2577 13.04C94.2577 13.2 94.2177 13.3533 94.1377 13.5C94.0577 13.6467 93.9577 13.78 93.8377 13.9C93.7177 14.02 93.5843 14.1267 93.4377 14.22C93.291 14.3 93.151 14.3667 93.0177 14.42C92.631 14.5933 92.1843 14.7267 91.6777 14.82C91.1843 14.9133 90.671 14.9467 90.1377 14.92C89.4177 14.8933 88.7243 14.7533 88.0577 14.5C87.4043 14.2333 86.891 13.8 86.5177 13.2C86.171 12.6133 85.9643 11.96 85.8977 11.24C85.831 10.52 85.8643 9.84 85.9977 9.2C86.1443 8.42667 86.391 7.8 86.7377 7.32C87.0977 6.82667 87.5243 6.43333 88.0177 6.14C88.6177 5.79333 89.291 5.61333 90.0377 5.6C90.7843 5.58667 91.4977 5.73333 92.1777 6.04C92.631 6.24 93.0377 6.51333 93.3977 6.86C93.7577 7.19333 94.031 7.6 94.2177 8.08C94.271 8.2 94.311 8.34667 94.3377 8.52C94.3777 8.69333 94.4043 8.88 94.4177 9.08C94.431 9.26667 94.431 9.45333 94.4177 9.64C94.4043 9.82667 94.371 9.99333 94.3177 10.14C94.2377 10.38 94.1377 10.5667 94.0177 10.7C93.8977 10.8333 93.7443 10.9333 93.5577 11C93.371 11.0667 93.1443 11.1133 92.8777 11.14C92.6243 11.1533 92.3177 11.1667 91.9577 11.18C91.6377 11.1933 91.3377 11.2 91.0577 11.2C90.7777 11.2 90.491 11.2 90.1977 11.2C89.9043 11.1867 89.5977 11.18 89.2777 11.18C88.971 11.1667 88.6243 11.1533 88.2377 11.14C88.1977 11.4067 88.231 11.64 88.3377 11.84C88.4577 12.0267 88.6177 12.1867 88.8177 12.32C89.0177 12.44 89.2443 12.5333 89.4977 12.6C89.751 12.6667 89.9977 12.7067 90.2377 12.72C90.691 12.7467 91.1243 12.7133 91.5377 12.62C91.951 12.5133 92.3777 12.3933 92.8177 12.26ZM91.9577 8.38C91.7043 8.08667 91.4377 7.87333 91.1577 7.74C90.9443 7.64667 90.7177 7.60667 90.4777 7.62C90.251 7.62 90.031 7.65333 89.8177 7.72C89.431 7.81333 89.1043 8.01333 88.8377 8.32C88.811 8.34667 88.7643 8.41333 88.6977 8.52C88.631 8.61333 88.5643 8.71333 88.4977 8.82C88.4443 8.92667 88.4043 9.02667 88.3777 9.12C88.351 9.21333 88.3643 9.26 88.4177 9.26H92.3377C92.3243 9.07333 92.291 8.92 92.2377 8.8C92.1843 8.66667 92.091 8.52667 91.9577 8.38ZM96.0544 7.92C96.0544 7.76 96.0544 7.58 96.0544 7.38C96.0544 7.16667 96.061 6.95333 96.0744 6.74C96.0877 6.51333 96.1077 6.3 96.1344 6.1C96.1744 5.88667 96.2277 5.7 96.2944 5.54C96.401 5.3 96.5677 5.14 96.7944 5.06C97.021 4.96667 97.2677 4.92667 97.5344 4.94C97.8144 4.94 98.0344 4.98667 98.1944 5.08C98.3544 5.17333 98.4744 5.3 98.5544 5.46C98.6344 5.60667 98.681 5.78 98.6944 5.98C98.721 6.16667 98.7344 6.36667 98.7344 6.58C98.8544 6.36667 99.0144 6.19333 99.2144 6.06C99.4277 5.92667 99.641 5.82 99.8544 5.74C100.068 5.66 100.261 5.60667 100.434 5.58C100.608 5.54 100.708 5.52 100.734 5.52C101.068 5.49333 101.368 5.48667 101.634 5.5C101.914 5.51333 102.221 5.57333 102.554 5.68C102.768 5.76 102.988 5.87333 103.214 6.02C103.441 6.15333 103.641 6.31333 103.814 6.5C103.988 6.68667 104.101 6.89333 104.154 7.12C104.221 7.33333 104.194 7.56 104.074 7.8C103.888 8.13333 103.681 8.3 103.454 8.3C103.228 8.28667 102.981 8.24667 102.714 8.18C102.568 8.15333 102.394 8.09333 102.194 8C101.994 7.90667 101.821 7.84667 101.674 7.82C101.221 7.75333 100.821 7.78667 100.474 7.92C100.128 8.05333 99.8277 8.21333 99.5744 8.4C99.281 8.62667 99.0277 8.88667 98.8144 9.18V12.06C98.8144 12.42 98.8077 12.7933 98.7944 13.18C98.7944 13.5667 98.741 13.92 98.6344 14.24C98.541 14.5467 98.3744 14.8 98.1344 15C97.9077 15.1867 97.5744 15.2667 97.1344 15.24C96.8944 15.2267 96.681 15.1133 96.4944 14.9C96.3077 14.6733 96.1944 14.4533 96.1544 14.24C96.1277 14.04 96.1077 13.8 96.0944 13.52C96.081 13.24 96.0677 12.9467 96.0544 12.64C96.0544 12.3333 96.0544 12.0267 96.0544 11.72C96.0544 11.4 96.0544 11.1067 96.0544 10.84V7.92Z" fill="#E2CFEA"/>
</g>
<defs>
<filter id="filter0_b_601_14" x="-3.62988" y="-3.17993" width="111.884" height="26.6599" filterUnits="userSpaceOnUse" color-interpolation-filters="sRGB">
<feFlood flood-opacity="0" result="BackgroundImageFix"/>
<feGaussianBlur in="BackgroundImageFix" stdDeviation="2"/>
<feComposite in2="SourceAlpha" operator="in" result="effect1_backgroundBlur_601_14"/>
<feBlend mode="normal" in="SourceGraphic" in2="effect1_backgroundBlur_601_14" result="shape"/>
</filter>
</defs>
</svg>
